<svg id="Calque_1" data-name="Calque 1" xmlns="http://www.w3.org/2000/svg" viewBox="0 0 374.65 307.98">
  <defs>
    <style>
      .cls-1 {
        fill: #4c0000;
      }

      .cls-2 {
        fill: #700;
      }

      .cls-3 {
        fill: #af0000;
      }

      .cls-4 {
        fill: #fe0000;
      }

      .cls-5 {
        fill: maroon;
      }

      .cls-6 {
        fill: #a00;
      }

      .cls-7 {
        fill: #ed0008;
      }
    </style>
  </defs>
  <title>rideau</title>
  <g>
    <g>
      <path d="M279.26,243.15v2.77c1.76,2.48,5.82,2.48,7.05,1.86V245C285.07,245.63,281,245.63,279.26,243.15Z" transform="translate(0 0.14)"/>
      <path d="M294.87,241.37v2.77c0,1.49,1.57,1.84,2.33,1.84v-2.77C296.44,243.22,294.87,242.86,294.87,241.37Z" transform="translate(0 0.14)"/>
      <path d="M24.14,241.86v2.77c2.05,2.46,6.78,2.46,8.22,1.85v-2.77C30.92,244.33,26.19,244.33,24.14,241.86Z" transform="translate(0 0.14)"/>
      <path d="M78.26,241.27V244c2.05,2.46,6.74,5,8.22,5v-2.77C85,246.27,80.32,243.72,78.26,241.27Z" transform="translate(0 0.14)"/>
      <path d="M43.41,242.07v2.77c2.05,2.46,6.78,1.23,8.22.62v-2.77C50.19,243.3,45.47,244.53,43.41,242.07Z" transform="translate(0 0.14)"/>
      <path d="M116.74,242.89v2.77c0.21,1.27.24,1.44,1.44,1.44v-2.77C117,244.33,116.95,244.16,116.74,242.89Z" transform="translate(0 0.14)"/>
      <path d="M255.84,246.86c-0.72.62-3.08-.82-4.11-3.29v2.77c1,2.46,3.39,3.9,4.11,3.29v-2.77h0Z" transform="translate(0 0.14)"/>
      <path d="M65.22,243.71v2.77c1.44,0.62,6.16.62,8.22-1.85v-2.77C71.38,244.33,66.66,244.33,65.22,243.71Z" transform="translate(0 0.14)"/>
      <path d="M156.63,241.86c-1.76,2.46-5.82,2.46-7.05,1.85v2.77c1.23,0.62,5.29.62,7.05-1.85v-2.77h0Z" transform="translate(0 0.14)"/>
      <path d="M215.31,243.71v2.77c1.23,0.62,5.29.62,7.05-1.85v-2.77C220.59,244.33,216.54,244.33,215.31,243.71Z" transform="translate(0 0.14)"/>
      <path d="M303.46,242.68v-0.82c0,1.71-2.09,1.85-3.53,1.85v2.77c1.44,0,3.53-.14,3.53-1.85v-1.95h0Z" transform="translate(0 0.14)"/>
      <path d="M317.26,246.11v2.77c1.44,0,3.53-2.72,3.53-4.45v-2.77C320.78,243.39,318.69,246.11,317.26,246.11Z" transform="translate(0 0.14)"/>
      <path d="M330.33,246.11v2.77c2,0,4.86-.14,4.86-1.87v-2.77C335.2,246,332.32,246.11,330.33,246.11Z" transform="translate(0 0.14)"/>
      <path d="M342.52,246.11v2.77c2,0,4.86-3.81,4.86-5.55v-2.77C347.38,242.3,344.5,246.11,342.52,246.11Z" transform="translate(0 0.14)"/>
      <path d="M102.19,246.18v2.77c1.11,0.62,4.78-1.85,6.37-4.31v-2.77C107,244.33,103.31,246.79,102.19,246.18Z" transform="translate(0 0.14)"/>
      <path d="M32.35,243.71v2.77c2.33-1.23,7.57-3.59,11.06-1.64v-2.77C39.92,240.12,34.68,242.48,32.35,243.71Z" transform="translate(0 0.14)"/>
      <path d="M51.63,242.69v2.77a16.2,16.2,0,0,1,13.59,1v-2.77A16.2,16.2,0,0,0,51.63,242.69Z" transform="translate(0 0.14)"/>
      <path d="M73.44,241.86v2.77c0.94-1.13,4.1-1.29,4.83-.6v-2.77C77.53,240.57,74.38,240.73,73.44,241.86Z" transform="translate(0 0.14)"/>
      <path d="M86.48,246.27V249c3.56,0,5.89-3.79,15.71-.1v-2.77C92.37,242.48,90,246.27,86.48,246.27Z" transform="translate(0 0.14)"/>
      <path d="M108.56,241.86v2.77c1.92-.75,5.14,2.74,8.18,1.58v-2.77C113.7,244.61,110.48,241.11,108.56,241.86Z" transform="translate(0 0.14)"/>
      <path d="M118.18,244.33v2.77c1.57,0,9.59.31,12.74-2.84v-2.77C127.77,244.64,119.76,244.33,118.18,244.33Z" transform="translate(0 0.14)"/>
      <path d="M130.92,241.49v2.77c3.15-2.23,13,6.13,18.66,2.23v-2.77C143.93,247.62,134.07,239.26,130.92,241.49Z" transform="translate(0 0.14)"/>
      <path d="M156.63,241.86v2.77c0.58-.72,6.06,12.8,23.83,0v-2.77C162.69,254.67,157.21,241.15,156.63,241.86Z" transform="translate(0 0.14)"/>
      <path d="M180.45,241.86v2.77c1.81-1.85,8.28,4.31,11.26,4.31v-2.77C188.74,246.18,182.27,240,180.45,241.86Z" transform="translate(0 0.14)"/>
      <path d="M191.72,246.18v2.77c5.24,0,5.89-6.16,23.59-2.46v-2.77C197.61,240,197,246.18,191.72,246.18Z" transform="translate(0 0.14)"/>
      <path d="M240.6,242.27V245c2.88-3.9,8.36-1.53,11.13,1.3v-2.77C249,240.74,243.48,238.37,240.6,242.27Z" transform="translate(0 0.14)"/>
      <path d="M222.36,241.86v2.77c4-3.18,7.57,8.73,18.25.41v-2.77C229.92,250.59,226.33,238.68,222.36,241.86Z" transform="translate(0 0.14)"/>
      <path d="M255.84,246.86v2.77c7.67,0,14.14-5.82,14.14-5.82V241S263.51,246.86,255.84,246.86Z" transform="translate(0 0.14)"/>
      <path d="M270,241v2.77c1.44-1.23,9.28,2.11,9.28,2.11v-2.77S271.42,239.81,270,241Z" transform="translate(0 0.14)"/>
      <path d="M286.31,245v2.77a11.19,11.19,0,0,0,8.56-3.64v-2.77A11.19,11.19,0,0,1,286.31,245Z" transform="translate(0 0.14)"/>
      <path d="M297.2,243.22V246a4.8,4.8,0,0,0,2.74.5v-2.77A4.8,4.8,0,0,1,297.2,243.22Z" transform="translate(0 0.14)"/>
      <path d="M320.78,241.66v2.77c1.47-1.13,5.51,4.07,9.55,4.45v-2.77C326.29,245.73,322.26,240.53,320.78,241.66Z" transform="translate(0 0.14)"/>
      <path d="M308,242.68v2.77a4.66,4.66,0,0,0,1.16,1.58v-2.77A4.66,4.66,0,0,1,308,242.68Z" transform="translate(0 0.14)"/>
      <path d="M303.46,242.68v2.77c0.86,0.89,3.53.28,4.57,0v-2.77C307,243,304.32,243.57,303.46,242.68Z" transform="translate(0 0.14)"/>
      <path d="M309.19,244.26V247c2,2.26,6.08,2.4,8.06,1.85v-2.77C315.27,246.66,311.23,246.52,309.19,244.26Z" transform="translate(0 0.14)"/>
      <path d="M335.2,244.24V247c1-1.07,5-1,7.33,1.87v-2.77C340.19,243.23,336.15,243.16,335.2,244.24Z" transform="translate(0 0.14)"/>
      <path d="M347.38,240.56v2.77c1.23-2.88,7.33-3.7,10.54-1.71v-2.77C354.71,236.87,348.62,237.69,347.38,240.56Z" transform="translate(0 0.14)"/>
      <path d="M16.54,238.65v2.77c4-2.05,5.34-.14,7.6,3.22v-2.77C21.88,238.51,20.51,236.59,16.54,238.65Z" transform="translate(0 0.14)"/>
    </g>
    <g>
      <path class="cls-1" d="M286.31,60.84h-7.05V243.92c1.76,2.48,5.82,2.48,7.05,1.86V60.84Z" transform="translate(0 0.14)"/>
      <path class="cls-2" d="M297.2,60.84h-2.33v181.3c0,1.49,1.57,1.84,2.33,1.84V60.84Z" transform="translate(0 0.14)"/>
      <path class="cls-2" d="M32.35,60.84H24.14V242.63c2.05,2.46,6.78,2.46,8.22,1.85V60.84Z" transform="translate(0 0.14)"/>
      <path class="cls-1" d="M86.48,60.84H78.26V242c2.05,2.46,6.74,5,8.22,5V60.84Z" transform="translate(0 0.14)"/>
      <path class="cls-1" d="M51.63,60.84H43.41v182c2.05,2.46,6.78,1.23,8.22.62V60.84Z" transform="translate(0 0.14)"/>
      <path class="cls-1" d="M118.18,60.84h-1.44V243.66c0.21,1.27.24,1.44,1.44,1.44V60.84Z" transform="translate(0 0.14)"/>
      <path class="cls-1" d="M255.84,60.84h-4.11v183.5c1,2.46,3.39,3.9,4.11,3.29V60.84Z" transform="translate(0 0.14)"/>
      <path class="cls-2" d="M65.22,60.84h8.22V242.63c-2.05,2.46-6.78,2.46-8.22,1.85V60.84Z" transform="translate(0 0.14)"/>
      <path class="cls-1" d="M149.57,60.84h7.05V242.63c-1.76,2.46-5.82,2.46-7.05,1.85V60.84Z" transform="translate(0 0.14)"/>
      <path class="cls-1" d="M215.31,60.84h7.05V242.63c-1.76,2.46-5.82,2.46-7.05,1.85V60.84Z" transform="translate(0 0.14)"/>
      <path class="cls-2" d="M299.93,60.84h3.53V242.63c0,1.71-2.09,1.85-3.53,1.85V60.84Z" transform="translate(0 0.14)"/>
      <path class="cls-1" d="M317.26,60.84h3.53V242.43c0,1.73-2.09,4.45-3.53,4.45v-186Z" transform="translate(0 0.14)"/>
      <path class="cls-2" d="M330.33,60.84h4.86V245c0,1.73-2.88,1.87-4.86,1.87v-186Z" transform="translate(0 0.14)"/>
      <path class="cls-2" d="M342.52,60.84h4.86V241.33c0,1.73-2.88,5.55-4.86,5.55v-186Z" transform="translate(0 0.14)"/>
      <path class="cls-2" d="M102.19,60.84h6.37V242.63c-1.59,2.46-5.25,4.93-6.37,4.31V60.84Z" transform="translate(0 0.14)"/>
      <path class="cls-3" d="M32.35,244.48c2.33-1.23,7.57-3.59,11.06-1.64v-182H32.35V244.48Z" transform="translate(0 0.14)"/>
      <path class="cls-3" d="M51.63,243.45a16.2,16.2,0,0,1,13.59,1V60.84H51.63V243.45Z" transform="translate(0 0.14)"/>
      <path class="cls-3" d="M73.44,242.63c0.94-1.13,4.1-1.29,4.83-.6V60.84H73.44V242.63Z" transform="translate(0 0.14)"/>
      <path class="cls-3" d="M86.48,247c3.56,0,5.89-3.79,15.71-.1V60.84H86.48V247Z" transform="translate(0 0.14)"/>
      <path class="cls-3" d="M108.56,242.63c1.92-.75,5.14,2.74,8.18,1.58V60.84h-8.18V242.63Z" transform="translate(0 0.14)"/>
      <path class="cls-2" d="M118.18,245.1c1.57,0,9.59.31,12.74-2.84V60.84H118.18V245.1Z" transform="translate(0 0.14)"/>
      <path class="cls-3" d="M130.92,242.25c3.15-2.23,13,6.13,18.66,2.23V60.84H130.92V242.25Z" transform="translate(0 0.14)"/>
      <path class="cls-3" d="M156.63,242.63c0.58-.72,6.06,12.8,23.83,0V60.84H156.63V242.63Z" transform="translate(0 0.14)"/>
      <path class="cls-2" d="M180.45,242.63c1.81-1.85,8.28,4.31,11.26,4.31V60.84H180.45V242.63Z" transform="translate(0 0.14)"/>
      <path class="cls-3" d="M191.72,246.94c5.24,0,5.89-6.16,23.59-2.46V60.84H191.72v186.1Z" transform="translate(0 0.14)"/>
      <path class="cls-2" d="M251.73,244.34c-2.76-2.83-8.25-5.2-11.13-1.3V60.84h11.13v183.5Z" transform="translate(0 0.14)"/>
      <path class="cls-3" d="M222.36,242.63c4-3.18,7.57,8.73,18.25.41V60.84H222.36V242.63Z" transform="translate(0 0.14)"/>
      <path class="cls-3" d="M255.84,247.63c7.67,0,14.14-5.82,14.14-5.82v-181H255.84V247.63Z" transform="translate(0 0.14)"/>
      <path class="cls-2" d="M270,241.81c1.44-1.23,9.28,2.11,9.28,2.11V60.84H270v181Z" transform="translate(0 0.14)"/>
      <path class="cls-3" d="M286.31,245.78a11.19,11.19,0,0,0,8.56-3.64V60.84h-8.56V245.78Z" transform="translate(0 0.14)"/>
      <path class="cls-3" d="M297.2,244a4.8,4.8,0,0,0,2.74.5V60.84H297.2V244Z" transform="translate(0 0.14)"/>
      <path class="cls-3" d="M320.78,242.43c1.47-1.13,5.51,4.07,9.55,4.45v-186h-9.55V242.43Z" transform="translate(0 0.14)"/>
      <path class="cls-1" d="M309.19,60.84H308V243.45a4.66,4.66,0,0,0,1.16,1.58V60.84Z" transform="translate(0 0.14)"/>
      <path class="cls-3" d="M303.46,60.84H308V243.45c-1,.28-3.71.89-4.57,0V60.84Z" transform="translate(0 0.14)"/>
      <path class="cls-2" d="M309.19,245c2,2.26,6.08,2.4,8.06,1.85v-186h-8.06V245Z" transform="translate(0 0.14)"/>
      <path class="cls-1" d="M335.2,245c1-1.07,5-1,7.33,1.87v-186H335.2V245Z" transform="translate(0 0.14)"/>
      <path class="cls-1" d="M347.38,241.33c1.23-2.88,7.33-3.7,10.54-1.71V60.84H347.38V241.33Z" transform="translate(0 0.14)"/>
      <path class="cls-1" d="M24.14,242.63c-2.26-3.36-3.63-5.27-7.6-3.22V60.84h7.6V242.63Z" transform="translate(0 0.14)"/>
    </g>
  </g>
  <g>
    <g>
      <path d="M50.37,274.81q0.69-.19,1.32-0.41c0.62-.21,1.12-0.41,1.5-0.59l0.21,1c0.45-.13.84-0.26,1.2-0.38a19.56,19.56,0,0,1-4.26,1C50.36,275.2,50.37,275,50.37,274.81Z" transform="translate(0 0.14)"/>
      <path d="M35.83,283.89v-0.06s0,0,0,.06h0Z" transform="translate(0 0.14)"/>
      <path d="M26.08,292.45h0A13.9,13.9,0,0,0,29,291.22a11.69,11.69,0,0,1,0,1.22,32.29,32.29,0,0,1-6.26,1.36l-0.16-.45A27.07,27.07,0,0,0,26.08,292.45Z" transform="translate(0 0.14)"/>
      <path d="M26.48,169.38c51-3.75,83.34-103.86,83.34-168.37h2.92c0,65.75-33.56,168.49-86.3,168.49h0Z" transform="translate(0 0.14)"/>
      <path d="M57,269.46L57,269.13a2,2,0,0,0,.06-0.9C48.1,220.94,34.38,204,25,188.17c-1.07-3.15-2.13-6.23-3.17-9.22l0.69-.11c8.5,20.5,26.5,33,37.38,90.62,0.22,1.19-.78,2.51-2.54,3.61-0.12-.83-0.28-1.73-0.45-2.67A2,2,0,0,0,57,269.46Z" transform="translate(0 0.14)"/>
      <path d="M22.75,294.72c0-.09,0-0.18,0-0.26C22.76,294.54,22.76,294.63,22.75,294.72Z" transform="translate(0 0.14)"/>
      <path d="M48.12,275.5h0Z" transform="translate(0 0.14)"/>
      <path d="M47,276.72c0.06-.18.13-0.36,0.17-0.56A4.94,4.94,0,0,1,47,276.72Z" transform="translate(0 0.14)"/>
      <path d="M11.12,302.31c0.89-.44,1.71-0.58,2.46-1.06,0.15,0.56.31,1.79,0.45,2.15-3.63,1.95-9,3.22-14,4.44v-1a66.41,66.41,0,0,0,10.62-4.15A0.35,0.35,0,0,1,11.12,302.31Z" transform="translate(0 0.14)"/>
      <path d="M35.88,283.87l-0.05,0h0Z" transform="translate(0 0.14)"/>
      <path d="M47.26,275.4s0,0.07,0,.1a4.9,4.9,0,0,1-.12.63c0.05-.23.07-0.48,0.1-0.73h0Z" transform="translate(0 0.14)"/>
      <path d="M20.85,298.34a7.74,7.74,0,0,0,1.89-3.55A7.05,7.05,0,0,1,20.85,298.34Z" transform="translate(0 0.14)"/>
      <path d="M26.08,291.21h0a11.71,11.71,0,0,1,0,1.23,27.07,27.07,0,0,1-3.5.91q-0.19-.55-0.39-1.16A27.65,27.65,0,0,0,26.08,291.21Z" transform="translate(0 0.14)"/>
      <path d="M57,269.13L57,269.46a2,2,0,0,1-.08.95l-0.16-.84A2.65,2.65,0,0,0,57,269.13Z" transform="translate(0 0.14)"/>
      <path d="M50.49,274.78c0.45-.13.84-0.26,1.2-0.38q-0.64.23-1.32,0.41c0-.21,0-0.44,0-0.68Z" transform="translate(0 0.14)"/>
      <path d="M26.48,169.38l0.31-.76a0.5,0.5,0,0,0-.08-0.5C77.29,164.1,109.4,65.45,109.81,1h0C109.82,65.52,77.51,165.63,26.48,169.38Z" transform="translate(0 0.14)"/>
      <path d="M29,291.22a13.9,13.9,0,0,1-2.92,1.23h0A14.64,14.64,0,0,0,29,291.11v0.11Z" transform="translate(0 0.14)"/>
      <path d="M26.08,291.22A14,14,0,0,0,28.93,290c0,0.4.05,0.76,0.07,1.09a14.64,14.64,0,0,1-2.92,1.33A11.71,11.71,0,0,0,26.08,291.22Z" transform="translate(0 0.14)"/>
      <path d="M13.58,302a27,27,0,0,1-2.46,1.39h0c0.87-.47,1.7-0.95,2.45-1.43V302Z" transform="translate(0 0.14)"/>
      <path d="M42.37,278.1a7.84,7.84,0,0,1-5.81,3.07h0v0A18.67,18.67,0,0,0,42.37,278.1Z" transform="translate(0 0.14)"/>
      <circle cx="47.25" cy="275.39" r="0.01" transform="translate(-170.39 100.3) rotate(-41.42)"/>
      <path d="M47.25,275.39v0h0Z" transform="translate(0 0.14)"/>
      <path d="M53.2,273.81c-0.39.17-.88,0.37-1.5,0.59a15.81,15.81,0,0,0,1.5-.62v0Z" transform="translate(0 0.14)"/>
      <path d="M50.35,274.13q0-.26,0-0.54c0.48-.13.94-0.27,1.38-0.43s0.91-.33,1.26-0.48l0.24,1.09a15.81,15.81,0,0,1-1.5.62c-0.36.12-.75,0.25-1.2,0.38Z" transform="translate(0 0.14)"/>
      <path d="M35.69,284l0.14-.07c-0.26,3.62-1,6.79-6.83,8.56h0C35.89,290.09,35.3,286.14,35.69,284Z" transform="translate(0 0.14)"/>
      <path d="M29,291.22c3.17-1.83,3.7-4.44,3.91-7.33l0.05,0,0.78-.35h0c0.71-.31,1.42-0.58,2.1-0.85,0,0.44,0,.83,0,1.16v0.06s0,0,0,0h0l-0.14.07c-0.39,2.17.2,6.13-6.69,8.49A11.69,11.69,0,0,0,29,291.22Z" transform="translate(0 0.14)"/>
      <path d="M33,283.87l-0.05,0h0Z" transform="translate(0 0.14)"/>
      <path d="M32.91,283.89v-0.06s0,0,0,.06h0Z" transform="translate(0 0.14)"/>
      <path d="M32.68,284.66q0.06-.35.11-0.71l0.13-.06c-0.21,2.89-.74,5.49-3.91,7.33v-0.11C32.34,289.07,32.48,286.48,32.68,284.66Z" transform="translate(0 0.14)"/>
      <path d="M32.91,282.66h0c0,0.44,0,.84,0,1.18v0.06s0,0,0,0h0l-0.13.06C32.84,283.53,32.88,283.1,32.91,282.66Z" transform="translate(0 0.14)"/>
      <path d="M32.68,284.66c-0.2,1.82-.34,4.41-3.68,6.45,0-.33,0-0.69-0.07-1.09A7.12,7.12,0,0,0,32.68,284.66Z" transform="translate(0 0.14)"/>
      <path d="M34,283.42l1.88-.76h0c-0.69.27-1.39,0.55-2.1,0.85h0l0.23-.1h0Z" transform="translate(0 0.14)"/>
      <path d="M35.78,281.46q0,0.65.06,1.2l-1.88.76-0.17-1.16C34.47,282,35.14,281.72,35.78,281.46Z" transform="translate(0 0.14)"/>
      <path d="M33.74,283.52l-0.78.35,0.78-.35h0Z" transform="translate(0 0.14)"/>
      <path d="M32.91,283.89h0s0,0,0-.06c0-.35,0-0.7.06-1.06,0,0,0-.1,0-0.14l0.71-.32,0.05,1.21-0.78.35-0.05,0h0Z" transform="translate(0 0.14)"/>
      <path d="M32.91,283.89h0S32.91,283.9,32.91,283.89Z" transform="translate(0 0.14)"/>
      <path d="M33,282.63s0,0.1,0,.14c0,0.36,0,.71-0.06,1.06,0-.34,0-0.73,0-1.18l0,0h0Z" transform="translate(0 0.14)"/>
      <path d="M34,283.42h0l-0.23.1h0Z" transform="translate(0 0.14)"/>
      <path d="M33.74,282.29l0.06,0L34,283.42l-0.23.1-0.05-1.21,0.05,0h0Z" transform="translate(0 0.14)"/>
      <path d="M22.77,294.46a3,3,0,0,0,0-.65A2.55,2.55,0,0,1,22.77,294.46Z" transform="translate(0 0.14)"/>
      <path d="M22.74,294.79v0Z" transform="translate(0 0.14)"/>
      <path d="M20.85,298.34A21.5,21.5,0,0,1,14,303.41h0A24.71,24.71,0,0,0,20.85,298.34Z" transform="translate(0 0.14)"/>
      <path d="M17.44,298c1.11-1.26,2.24-2.09,2.38-3.17v-0.07c0-.09,0-0.18,0-0.26a2.55,2.55,0,0,0,0-.65c1-.12,1.84-0.27,2.66-0.43,0.09,0.15.17,0.3,0.26,0.43a3,3,0,0,1,0,.65c0,0.09,0,.17,0,0.26v0.07a7.74,7.74,0,0,1-1.89,3.55A24.71,24.71,0,0,1,14,303.4c-0.15-.36-0.55-2-0.7-2.53C15.2,299.68,16.41,299.18,17.44,298Z" transform="translate(0 0.14)"/>
      <path d="M17.93,298.34a7.74,7.74,0,0,0,1.89-3.55A7.05,7.05,0,0,1,17.93,298.34Z" transform="translate(0 0.14)"/>
      <path d="M19.83,294.72c0-.09,0-0.18,0-0.26C19.85,294.54,19.84,294.63,19.83,294.72Z" transform="translate(0 0.14)"/>
      <path d="M19.82,293.56v-0.07c0-.09,0-0.18,0-0.26a2.55,2.55,0,0,0,0-.65c0.75-.1,1.45-0.21,2.11-0.33,0.19,0.43.38,0.81,0.56,1.13-0.82.16-1.7,0.3-2.66,0.43l0-.09C19.8,293.67,19.81,293.61,19.82,293.56Z" transform="translate(0 0.14)"/>
      <path d="M19.82,294.79v0Z" transform="translate(0 0.14)"/>
      <path d="M17.93,298.34A19.28,19.28,0,0,1,13.58,302V302A21.15,21.15,0,0,0,17.93,298.34Z" transform="translate(0 0.14)"/>
      <path d="M19.85,294.46a3,3,0,0,0,0-.65A2.55,2.55,0,0,1,19.85,294.46Z" transform="translate(0 0.14)"/>
      <path d="M19.79,293.73l0,0.09,0-.07v0Z" transform="translate(0 0.14)"/>
      <path d="M19.78,293.75l0,0.07,0-.06h0Z" transform="translate(0 0.14)"/>
      <path d="M36.89,283.42c3.42-1.44,8.74-3.09,10.08-6.7-1.22,3.82-5.54,4.76-10.3,6.8h0l0.23-.1h0Z" transform="translate(0 0.14)"/>
      <path d="M47.13,276.17v0Z" transform="translate(0 0.14)"/>
      <path d="M36.89,283.42l-0.16-1.1c3.49-1.37,6.36-2.6,7.32-5.6a4.94,4.94,0,0,0,.17-0.56v0a4.9,4.9,0,0,0,.12-0.63h1.53c0.48,0,1,0,1.36-.09,0,0.25-.05.5-0.1,0.73v0c0,0.2-.11.37-0.17,0.56C45.63,280.33,40.31,282,36.89,283.42Z" transform="translate(0 0.14)"/>
      <path d="M44,276.72c0.06-.18.13-0.36,0.17-0.56A4.94,4.94,0,0,1,44,276.72Z" transform="translate(0 0.14)"/>
      <path d="M44.35,275.5a4.9,4.9,0,0,1-.12.63,7.9,7.9,0,0,0,.11-0.8C44.34,275.39,44.34,275.45,44.35,275.5Z" transform="translate(0 0.14)"/>
      <path d="M45.2,275.5h0Z" transform="translate(0 0.14)"/>
      <path d="M44.22,276.17v0Z" transform="translate(0 0.14)"/>
      <path d="M44,276.72c-1,3-3.83,4.23-7.32,5.6v0C39.75,281.06,43,279.45,44,276.72Z" transform="translate(0 0.14)"/>
      <path d="M36.72,282.31l-0.16-1.12h0a7.84,7.84,0,0,0,5.81-3.07A5.92,5.92,0,0,0,44,275.49a4.94,4.94,0,0,0,.17-0.56v0c0-.12.05-0.24,0.07-0.36,0,0.27,0,.54,0,0.79a7.9,7.9,0,0,1-.11.8v0c0,0.2-.11.37-0.17,0.56C43,279.45,39.75,281.06,36.72,282.31Z" transform="translate(0 0.14)"/>
      <path d="M47.25,275.4c-0.39.05-.89,0.08-1.36,0.09,0.46,0,.92-0.05,1.37-0.1h0Z" transform="translate(0 0.14)"/>
      <path d="M44.35,275.5h0Z" transform="translate(0 0.14)"/>
      <path d="M44.38,274.27h1.5c0.46,0,.93,0,1.31-0.08,0,0.41,0,.79.06,1.16v0.06c-0.45,0-.9.08-1.37,0.1H44.35c0-.05,0-0.11,0-0.17A9.43,9.43,0,0,0,44.38,274.27Z" transform="translate(0 0.14)"/>
      <path d="M44.38,274.27a9.43,9.43,0,0,1,0,1.07c0-.25,0-0.52,0-0.79,0-.09,0-0.18.05-0.27h0Z" transform="translate(0 0.14)"/>
      <path d="M47.26,275.5h0Z" transform="translate(0 0.14)"/>
      <path d="M50.35,275.38a12.82,12.82,0,0,1-1.55.12c0.53,0,1-.07,1.55-0.12h0Z" transform="translate(0 0.14)"/>
      <path d="M47.43,275.38h0a20.09,20.09,0,0,0,2.94-.56c0,0.2,0,.39,0,0.56-0.51.06-1,.1-1.55,0.12H47.26s0-.07,0-0.1Z" transform="translate(0 0.14)"/>
      <path d="M21.87,178.95c1,3,2.1,6.07,3.17,9.22a90,90,0,0,1-4.74-9C20.82,179.09,21.34,179,21.87,178.95Z" transform="translate(0 0.14)"/>
      <path d="M47.43,274.13h0a20.09,20.09,0,0,0,2.8-.53l0.11,0.52c0,0.24,0,.47,0,0.68a20.09,20.09,0,0,1-2.94.56A9.25,9.25,0,0,0,47.43,274.13Z" transform="translate(0 0.14)"/>
      <path d="M47.43,275.37h0l-0.17,0h0Z" transform="translate(0 0.14)"/>
      <path d="M47.25,275.33a9.5,9.5,0,0,0,0-1.17l0.13,0h0a9.25,9.25,0,0,1,0,1.23l-0.17,0v-0.06Z" transform="translate(0 0.14)"/>
      <path d="M50.35,274.13l-0.11-.52,0.08,0Q50.34,273.87,50.35,274.13Z" transform="translate(0 0.14)"/>
      <path d="M47.25,275.33c0-.37,0-0.75-0.06-1.16H47.3A9.5,9.5,0,0,1,47.25,275.33Z" transform="translate(0 0.14)"/>
      <path d="M36.66,283.52l-0.78.35,0.78-.35h0Z" transform="translate(0 0.14)"/>
      <path d="M22.58,293.36l0.16,0.45c-0.07-.13-0.15-0.28-0.22-0.44h0.06Z" transform="translate(0 0.14)"/>
      <path d="M35.83,283.89h0s0,0,0-.06c0-.35,0-0.7.06-1.06,0,0,0-.08,0-0.12l0.72-.28,0,1.15-0.78.35-0.05,0h0Z" transform="translate(0 0.14)"/>
      <path d="M22.19,292.21q0.19,0.6.39,1.16H22.51c-0.15-.32-0.31-0.71-0.47-1.14Z" transform="translate(0 0.14)"/>
      <path d="M36.61,282.35v0l-0.72.28h0Z" transform="translate(0 0.14)"/>
      <path d="M36.56,281.16v0l0.05,1.17-0.72.29c0-.39,0-0.79,0-1.21Z" transform="translate(0 0.14)"/>
      <path d="M35.83,283.89h0S35.83,283.9,35.83,283.89Z" transform="translate(0 0.14)"/>
      <path d="M35.9,282.77c0,0.36,0,.71-0.06,1.06,0-.33,0-0.72,0-1.16l0,0S35.9,282.73,35.9,282.77Z" transform="translate(0 0.14)"/>
      <path d="M35.9,282.64h0l0,0h0Z" transform="translate(0 0.14)"/>
      <path d="M35.86,281.43c0,0.42,0,.82,0,1.21l0,0q0-.55-0.06-1.2Z" transform="translate(0 0.14)"/>
      <path d="M22.51,293.38c0.08,0.16.15,0.31,0.22,0.44-0.08-.13-0.17-0.28-0.26-0.43h0Z" transform="translate(0 0.14)"/>
      <path d="M22,292.23c0.16,0.44.32,0.82,0.47,1.14h0c-0.18-.32-0.37-0.7-0.56-1.13Z" transform="translate(0 0.14)"/>
      <path d="M36.89,283.42h0l-0.23.1h0Z" transform="translate(0 0.14)"/>
      <path d="M36.89,283.42l-0.23.1,0-1.15,0.12,0Z" transform="translate(0 0.14)"/>
      <path d="M36.72,282.31v0l-0.12,0v0Z" transform="translate(0 0.14)"/>
      <path d="M36.72,282.31l-0.11,0-0.05-1.17Z" transform="translate(0 0.14)"/>
      <path d="M57.4,273.08a8.72,8.72,0,0,1-2.79,1.32,14.3,14.3,0,0,0,2.79-1.32h0Z" transform="translate(0 0.14)"/>
      <path d="M53.2,273.81a5.29,5.29,0,0,0,1.28-.73h0a5.44,5.44,0,0,0,2.46-2.67c0.18,0.94.33,1.83,0.45,2.67a14.3,14.3,0,0,1-2.79,1.32c-0.36.12-.75,0.25-1.2,0.38Z" transform="translate(0 0.14)"/>
      <path d="M54.48,271.85h0a6.1,6.1,0,0,0,2.3-2.27l0.16,0.84a5.44,5.44,0,0,1-2.46,2.67c-0.05-.35-0.11-0.72-0.17-1.1Z" transform="translate(0 0.14)"/>
      <path d="M54.48,273.07h0a5.29,5.29,0,0,1-1.28.73v0A12.75,12.75,0,0,0,54.48,273.07Z" transform="translate(0 0.14)"/>
      <path d="M52.95,272.68a8.16,8.16,0,0,0,1.36-.7c0.06,0.37.12,0.74,0.17,1.1a12.75,12.75,0,0,1-1.29.7Z" transform="translate(0 0.14)"/>
      <path d="M21.82,178.82l0.74,0-0.69.11Z" transform="translate(0 0.14)"/>
      <path d="M26.43,169.5a8.93,8.93,0,0,1-.94-0.06l1-.06Z" transform="translate(0 0.14)"/>
      <path d="M23.87,168.62a0.49,0.49,0,0,0,0-.26l0.11-.11c0.91,0,1.81-.06,2.71-0.13a0.5,0.5,0,0,1,.08.5l-0.31.76-1,.06a13.57,13.57,0,0,1-1.81-.33Z" transform="translate(0 0.14)"/>
      <path d="M23.9,168.36a0.49,0.49,0,0,1,0,.26l-0.2.49L23.25,169Z" transform="translate(0 0.14)"/>
      <path d="M20.08,178.63a17.25,17.25,0,0,0,1.74.19l0,0.13c-0.53.08-1.05,0.14-1.57,0.17Z" transform="translate(0 0.14)"/>
      <path d="M24,168.25l-0.11.11a0.5,0.5,0,0,0,0-.1H24Z" transform="translate(0 0.14)"/>
      <path d="M23.22,169l0.3-.72h0.35a0.5,0.5,0,0,1,0,.1l-0.65.64h0Z" transform="translate(0 0.14)"/>
      <polygon points="26.43 169.65 22.56 178.98 26.43 169.65 26.43 169.65"/>
      <path d="M21.73,178.55a2.19,2.19,0,0,0-1.7,0l-0.12-.29,3.61-8.71c0.66,0,1.31,0,2-.06a8.93,8.93,0,0,0,.94.06l-3.86,9.34-0.74,0Z" transform="translate(0 0.14)"/>
      <path d="M23.67,169.11a13.57,13.57,0,0,0,1.81.33c-0.65,0-1.31.06-2,.06h0Z" transform="translate(0 0.14)"/>
      <path d="M23.19,169.06l0.06-.06,0.42,0.11-0.16.39-0.5,0Z" transform="translate(0 0.14)"/>
      <polygon points="23.51 169.65 23.52 169.65 19.91 178.36 19.91 178.36 23.51 169.65"/>
      <path d="M23,169.48l0.5,0-3.6,8.71-0.26-.61Z" transform="translate(0 0.14)"/>
      <path d="M20,178.5a2.19,2.19,0,0,1,1.7,0l0.09,0.27a17.25,17.25,0,0,1-1.74-.19Z" transform="translate(0 0.14)"/>
      <path d="M23.25,169l-0.06.06,0-.07h0Z" transform="translate(0 0.14)"/>
      <path d="M25,188.17C34.38,204,48.1,220.94,57,268.23a2,2,0,0,1-.06.9C48.34,223.72,35.29,206.44,26,191Z" transform="translate(0 0.14)"/>
      <path d="M32.91,282.66V282.6s0,0,0,.06h0Z" transform="translate(0 0.14)"/>
      <path d="M32.93,282.65h0Z" transform="translate(0 0.14)"/>
      <path d="M33,282.64l0,0h0Z" transform="translate(0 0.14)"/>
      <path d="M19.83,293.49c0-.09,0-0.18,0-0.26C19.85,293.31,19.84,293.4,19.83,293.49Z" transform="translate(0 0.14)"/>
      <path d="M19.82,293.56c0,0.06,0,.11,0,0.17h0C19.79,293.67,19.81,293.61,19.82,293.56Z" transform="translate(0 0.14)"/>
      <path d="M19.78,293.75a7.32,7.32,0,0,1-1.85,3.35,8,8,0,0,0,1.85-3.35h0Z" transform="translate(0 0.14)"/>
      <path d="M19.78,293.72h0v0h0v0Z" transform="translate(0 0.14)"/>
      <ellipse cx="19.78" cy="293.75" ry="0.01" transform="translate(-33.64 4.37) rotate(-6.6)"/>
      <path d="M44,275.49c0.06-.18.13-0.36,0.17-0.56A4.94,4.94,0,0,1,44,275.49Z" transform="translate(0 0.14)"/>
      <path d="M44.29,274.54c0,0.12,0,.24-0.07.36,0-.14,0-0.3.06-0.45v0.09Z" transform="translate(0 0.14)"/>
      <path d="M45.2,274.27h0Z" transform="translate(0 0.14)"/>
      <path d="M19.78,179.14l0.53,0a90,90,0,0,0,4.74,9L26,191A92.52,92.52,0,0,1,19.78,179.14Z" transform="translate(0 0.14)"/>
      <path d="M19.76,178.57l0.33,0.06,0.22,0.49-0.53,0-0.13-.3Z" transform="translate(0 0.14)"/>
      <polygon points="19.76 178.72 19.76 178.72 19.65 178.98 19.76 178.72"/>
      <path d="M19.9,178.21L20,178.5l-0.26.05Z" transform="translate(0 0.14)"/>
      <polygon points="19.77 178.69 19.91 178.36 19.91 178.36 19.77 178.69 19.77 178.69"/>
      <path d="M19.76,178.57v0L20,178.5l0.06,0.13Z" transform="translate(0 0.14)"/>
      <polygon points="19.77 178.69 19.77 178.69 19.76 178.72 19.76 178.72 19.77 178.69"/>
      <path d="M19.71,178.56h0.06v0H19.71Z" transform="translate(0 0.14)"/>
      <circle cx="26.08" cy="291.22" transform="translate(-189.82 94.2) rotate(-42.48)"/>
      <path d="M28.93,289.93V290a14,14,0,0,1-2.85,1.19h0A14.77,14.77,0,0,0,28.93,289.93Z" transform="translate(0 0.14)"/>
      <path d="M32.78,284q0,0.36-.11.71c0-.25.06-0.48,0.09-0.7h0Z" transform="translate(0 0.14)"/>
      <path d="M32.77,282.73l0.14-.07c0,0.44-.07.87-0.13,1.29h0c0,0.22-.07.45-0.09,0.7A7.12,7.12,0,0,1,28.93,290v-0.1C32.8,287.59,32.45,284.54,32.77,282.73Z" transform="translate(0 0.14)"/>
      <path d="M26.08,291.21h0s0,0,0-.06v0.06Z" transform="translate(0 0.14)"/>
      <path d="M19.82,293.56v0Z" transform="translate(0 0.14)"/>
      <path d="M19.85,293.22a3,3,0,0,0,0-.65A2.55,2.55,0,0,1,19.85,293.22Z" transform="translate(0 0.14)"/>
      <path d="M36.55,281.14a18.36,18.36,0,0,0,6.16-3.59c-0.11.18-.22,0.38-0.35,0.55a18.67,18.67,0,0,1-5.81,3.06v0Z" transform="translate(0 0.14)"/>
      <path d="M34,282.19l1.82-.74h0c-0.65.25-1.31,0.52-2,.81h0Z" transform="translate(0 0.14)"/>
      <path d="M33.8,282.27l-0.06,0h0l0.06,0h0Z" transform="translate(0 0.14)"/>
      <path d="M44.22,274.93v0Z" transform="translate(0 0.14)"/>
      <path d="M44,275.49a5.92,5.92,0,0,1-1.68,2.61c0.13-.17.23-0.36,0.35-0.55A5.87,5.87,0,0,0,44,275.49Z" transform="translate(0 0.14)"/>
      <path d="M36.55,281.14v0l-0.69.27h0Z" transform="translate(0 0.14)"/>
      <path d="M35.86,281.42h0l-0.08,0h0Z" transform="translate(0 0.14)"/>
      <path d="M47.19,274.17c-0.38,0-.85.07-1.31,0.08q0.66,0,1.31-.09h0Z" transform="translate(0 0.14)"/>
      <path d="M45.2,274.27h0Z" transform="translate(0 0.14)"/>
      <path d="M44.38,274.27h0Z" transform="translate(0 0.14)"/>
      <polygon points="47.43 274.28 47.43 274.28 47.43 274.28 47.43 274.28"/>
      <path d="M47.43,274.13h0l-0.13,0h0Z" transform="translate(0 0.14)"/>
      <path d="M47.3,274.15h0Z" transform="translate(0 0.14)"/>
      <path d="M33.69,282.31h0l-0.71.32h0Z" transform="translate(0 0.14)"/>
      <path d="M33,282.63h0Z" transform="translate(0 0.14)"/>
      <path d="M33.74,282.28h0l-0.05,0h0Z" transform="translate(0 0.14)"/>
      <path d="M32.93,282.65h0s0,0,0-.06V282.5S32.93,282.61,32.93,282.65Z" transform="translate(0 0.14)"/>
      <path d="M32.91,282.66h0S32.91,282.66,32.91,282.66Z" transform="translate(0 0.14)"/>
      <path d="M32.91,282.6s0-.09,0-0.13v0.13Z" transform="translate(0 0.14)"/>
      <path d="M33.8,282.26h0l0.17-.07Z" transform="translate(0 0.14)"/>
      <path d="M33.8,282.26l-0.06,0h0l0.06,0h0Z" transform="translate(0 0.14)"/>
      <path d="M52.95,272.68c-0.35.15-.76,0.31-1.26,0.48,0.44-.16.85-0.33,1.25-0.51v0Z" transform="translate(0 0.14)"/>
      <path d="M54.48,271.84h0l-0.18.13v0Z" transform="translate(0 0.14)"/>
      <path d="M54.3,272v0a8.16,8.16,0,0,1-1.36.7v0A13.38,13.38,0,0,0,54.3,272Z" transform="translate(0 0.14)"/>
      <path class="cls-4" d="M53.18,124.2h0v0Z" transform="translate(0 0.14)"/>
      <ellipse class="cls-4" cx="53.17" cy="124.21" rx="0.01" transform="translate(-80.58 105.19) rotate(-58.67)"/>
      <path class="cls-5" d="M53.17,124.22h0Z" transform="translate(0 0.14)"/>
      <polygon points="23.51 168.41 23.52 168.41 23.22 169.13 23.21 169.13 23.51 168.41"/>
      <polygon points="23.18 169.22 23.19 169.21 23.01 169.62 23.01 169.62 23.18 169.22"/>
      <polygon points="23.01 169.62 19.65 177.75 23.01 169.62 23.01 169.62"/>
      <polygon points="23.21 169.13 23.22 169.13 23.19 169.21 23.18 169.22 23.21 169.13"/>
    </g>
    <g>
      <g>
        <path class="cls-6" d="M110.67,0c0,65.75-33.56,168.49-86.3,168.49l-3.87,9.34c8.5,20.5,26.5,33,37.38,90.63,0.52,2.78-5.62,6.29-12.68,6-0.5,5-8.07,6.71-11.57,8.46-0.48,2.69.54,8.1-13,9.85,0.75,4-7.17,10.78-20.67,14V0H110.67Z" transform="translate(0 0.14)"/>
        <path class="cls-4" d="M7.67,192.84c6.62,20.4,19.87,90.74,19.27,98.62,6.4-2,6.68-5.6,6.9-9.68C33.71,262,15.83,201,13.58,179.09L10,176.25l-4.25,9.33S7.2,191.39,7.67,192.84Z" transform="translate(0 0.14)"/>
        <path class="cls-4" d="M5.75,201.17C3,220.67,8.28,293.64,12,302.41c6.28-3.13,9.15-7.38,8.69-9.6-4.73-8.54-16-81.31-14.42-87.64Z" transform="translate(0 0.14)"/>
        <path class="cls-4" d="M33.52,222.21c2.69,22.55,18,56.13,1,58l0.1,2.35c6.66-2.85,12.49-3.52,10.13-13-0.56-8.76-7.69-40-9.35-42.19Z" transform="translate(0 0.14)"/>
        <path class="cls-5" d="M45.2,274.5c-0.45-13.41-11.82-55.34-28.51-97.13,0.43,0.69,2.18-.45,3,0.17C32.5,214.5,49,266,48.29,274.38A23.9,23.9,0,0,1,45.2,274.5Z" transform="translate(0 0.14)"/>
        <path class="cls-5" d="M33.77,282.89C34.47,272.6,18.87,209.84,11,177.84c-2.52,15,2,94.12,9.67,115C14.5,283.34,2.13,205.75,3,171.25c2.6-3.23,13.73,6.12,13.73,6.12-3.44,23.21,7.68,32.71,18.13,105Z" transform="translate(0 0.14)"/>
        <path class="cls-4" d="M51.35,273.78c3.17-.92,4-1.7,4-1.7-2.21-15.3-14.84-49.87-14.84-49.87C45.89,249.21,51.35,273.78,51.35,273.78Z" transform="translate(0 0.14)"/>
        <path class="cls-4" d="M25,163.92c39-11.33,67.5-72,80.5-135.75L85,35.67c-1,9-20.25,68.75-35.89,90.5Z" transform="translate(0 0.14)"/>
        <path class="cls-4" d="M40.5,42.59l7.81-3c-0.16,26.27-22,64.31-33.06,101.25v-14l5.47-19.75,6.53-19.75,7.57-27Z" transform="translate(0 0.14)"/>
        <path class="cls-4" d="M75.5,28.17c-3,38.17-24.39,63.92-24.39,63.92C61.5,70.09,70.25,47,71,28.17l-9.25,1.92-9.25,32-18.67,40-10.58,22L12.18,153.42l1.07,8.66,14.5-6,23.36-32.87L75.5,69.59,87,26.84Z" transform="translate(0 0.14)"/>
        <path class="cls-4" d="M0,50.09H12.18c0,42-12.18,87.5-12.18,87.5V50.09Z" transform="translate(0 0.14)"/>
        <path class="cls-5" d="M12.85,164.38c2.4-12.55,24.9-43.3,24.9-43.3-6.25,12.25-15.67,27.25-18,35,8-5.25,57-64.5,64-130.5l7-4C89,31.84,90.26,48.31,77.25,71.84c-18.25,33-12.75,46-46.75,86C4.11,188.89,12.85,164.38,12.85,164.38Z" transform="translate(0 0.14)"/>
        <path class="cls-5" d="M15.21,157.54c1.48-29.2,35.29-79.2,47.29-105.2C54.25,66.09,42,87.76,42,87.76c5.5-11.75,20.23-38,22-58.67-0.81,3.78,1.46-.19-3.67-0.92C53,66.59,20.54,119.33,16.69,135.59c1.56-21.5,18.66-40.75,26.56-93.75l-8.43-1.3c-4.07,43.55-16.24,68.26-20.57,78.8-5.75,14-7.52,41.39-7.52,41.39L14.25,167l4.62-5.62Z" transform="translate(0 0.14)"/>
        <path d="M24.32,166.93C16.19,166.28,0,154.5,0,154.5v15.33s8.62,10.25,20.5,8l4.23-10.22A0.5,0.5,0,0,0,24.32,166.93Z" transform="translate(0 0.14)"/>
        <path class="cls-7" d="M24.37,168.5C16.5,168.5,0,156.09,0,156.09v13.75s12.25,8,20.5,8Z" transform="translate(0 0.14)"/>
      </g>
      <path class="cls-6" d="M17,177.38c-5.87-4-17-8-17-7.59C8.06,175,15.31,177.19,17,177.38Z" transform="translate(0 0.14)"/>
    </g>
  </g>
  <g>
    <g>
      <path d="M324.17,274.81q-0.69-.19-1.32-0.41c-0.62-.21-1.12-0.41-1.5-0.59l-0.21,1c-0.45-.13-0.84-0.26-1.2-0.38a19.56,19.56,0,0,0,4.26,1C324.17,275.2,324.17,275,324.17,274.81Z" transform="translate(0 0.14)"/>
      <path d="M338.71,283.89v-0.06s0,0,0,.06h0Z" transform="translate(0 0.14)"/>
      <path d="M348.46,292.45h0a13.9,13.9,0,0,1-2.92-1.23,11.69,11.69,0,0,0,0,1.22,32.29,32.29,0,0,0,6.26,1.36l0.16-.45A27.07,27.07,0,0,1,348.46,292.45Z" transform="translate(0 0.14)"/>
      <path d="M348.06,169.38C297,165.63,264.72,65.52,264.72,1H261.8c0,65.75,33.56,168.49,86.3,168.49h0Z" transform="translate(0 0.14)"/>
      <path d="M317.52,269.46l0.06-.34a2,2,0,0,1-.06-0.9c8.92-47.29,22.65-64.19,32-80.06,1.07-3.15,2.13-6.23,3.17-9.22l-0.69-.11c-8.5,20.5-26.5,33-37.37,90.62-0.22,1.19.78,2.51,2.54,3.61,0.12-.83.28-1.73,0.45-2.67A2,2,0,0,1,317.52,269.46Z" transform="translate(0 0.14)"/>
      <path d="M351.79,294.72c0-.09,0-0.18,0-0.26C351.77,294.54,351.78,294.63,351.79,294.72Z" transform="translate(0 0.14)"/>
      <path d="M326.42,275.5h0Z" transform="translate(0 0.14)"/>
      <path d="M327.57,276.72c-0.06-.18-0.13-0.36-0.17-0.56A4.94,4.94,0,0,0,327.57,276.72Z" transform="translate(0 0.14)"/>
      <path d="M363.42,302.31c-0.89-.44-1.71-0.58-2.46-1.06-0.15.56-.31,1.79-0.45,2.15,3.63,1.95,9,3.22,14,4.44v-1a66.41,66.41,0,0,1-10.62-4.15A0.35,0.35,0,0,0,363.42,302.31Z" transform="translate(0 0.14)"/>
      <path d="M338.66,283.87l0.05,0h0Z" transform="translate(0 0.14)"/>
      <path d="M327.28,275.4s0,0.07,0,.1a4.9,4.9,0,0,0,.12.63c-0.05-.23-0.07-0.48-0.1-0.73h0Z" transform="translate(0 0.14)"/>
      <path d="M353.69,298.34a7.74,7.74,0,0,1-1.89-3.55A7.05,7.05,0,0,0,353.69,298.34Z" transform="translate(0 0.14)"/>
      <path d="M348.46,291.21h0a11.71,11.71,0,0,0,0,1.23,27.07,27.07,0,0,0,3.5.91q0.19-.55.39-1.16A27.65,27.65,0,0,1,348.46,291.21Z" transform="translate(0 0.14)"/>
      <path d="M317.58,269.13l-0.06.34a2,2,0,0,0,.08.95l0.16-.84A2.65,2.65,0,0,1,317.58,269.13Z" transform="translate(0 0.14)"/>
      <path d="M324,274.78c-0.45-.13-0.84-0.26-1.2-0.38q0.64,0.23,1.32.41c0-.21,0-0.44,0-0.68Z" transform="translate(0 0.14)"/>
      <path d="M348.06,169.38l-0.31-.76a0.5,0.5,0,0,1,.08-0.5C297.25,164.1,265.14,65.45,264.73,1h0C264.72,65.52,297,165.63,348.06,169.38Z" transform="translate(0 0.14)"/>
      <path d="M345.54,291.22a13.9,13.9,0,0,0,2.92,1.23h0a14.64,14.64,0,0,1-2.92-1.33v0.11Z" transform="translate(0 0.14)"/>
      <path d="M348.45,291.22A14,14,0,0,1,345.6,290c0,0.4-.05.76-0.07,1.09a14.64,14.64,0,0,0,2.92,1.33A11.71,11.71,0,0,1,348.45,291.22Z" transform="translate(0 0.14)"/>
      <path d="M361,302a27,27,0,0,0,2.46,1.39h0c-0.87-.47-1.7-0.95-2.45-1.43V302Z" transform="translate(0 0.14)"/>
      <path d="M332.17,278.1a7.84,7.84,0,0,0,5.81,3.07h0v0A18.67,18.67,0,0,1,332.17,278.1Z" transform="translate(0 0.14)"/>
      <circle cx="327.29" cy="275.39" r="0.01" transform="translate(-95.75 338.74) rotate(-48.58)"/>
      <path d="M327.29,275.39v0h0Z" transform="translate(0 0.14)"/>
      <path d="M321.34,273.81c0.39,0.17.88,0.37,1.5,0.59a15.81,15.81,0,0,1-1.5-.62v0Z" transform="translate(0 0.14)"/>
      <path d="M324.19,274.13q0-.26,0-0.54c-0.48-.13-0.94-0.27-1.38-0.43s-0.91-.33-1.26-0.48l-0.24,1.09a15.81,15.81,0,0,0,1.5.62c0.36,0.12.75,0.25,1.2,0.38Z" transform="translate(0 0.14)"/>
      <path d="M338.85,284l-0.14-.07c0.26,3.62,1,6.79,6.83,8.56h0C338.65,290.09,339.24,286.14,338.85,284Z" transform="translate(0 0.14)"/>
      <path d="M345.54,291.22c-3.17-1.83-3.7-4.44-3.91-7.33l-0.05,0-0.78-.35h0c-0.71-.31-1.42-0.58-2.1-0.85,0,0.44,0,.83,0,1.16v0.06s0,0,0,0h0l0.14,0.07c0.39,2.17-.2,6.13,6.69,8.49A11.69,11.69,0,0,1,345.54,291.22Z" transform="translate(0 0.14)"/>
      <path d="M341.58,283.87l0.05,0h0Z" transform="translate(0 0.14)"/>
      <path d="M341.63,283.89v-0.06s0,0,0,.06h0Z" transform="translate(0 0.14)"/>
      <path d="M341.86,284.66q-0.06-.35-0.11-0.71l-0.13-.06c0.21,2.89.74,5.49,3.91,7.33v-0.11C342.2,289.07,342.06,286.48,341.86,284.66Z" transform="translate(0 0.14)"/>
      <path d="M341.63,282.66h0c0,0.44,0,.84,0,1.18v0.06s0,0,0,0h0l0.13,0.06C341.7,283.53,341.66,283.1,341.63,282.66Z" transform="translate(0 0.14)"/>
      <path d="M341.86,284.66c0.2,1.82.34,4.41,3.68,6.45,0-.33,0-0.69.07-1.09A7.12,7.12,0,0,1,341.86,284.66Z" transform="translate(0 0.14)"/>
      <path d="M340.57,283.42l-1.88-.76h0c0.69,0.27,1.39.55,2.1,0.85h0l-0.23-.1h0Z" transform="translate(0 0.14)"/>
      <path d="M338.75,281.46q0,0.65-.06,1.2l1.88,0.76,0.17-1.16C340.06,282,339.4,281.72,338.75,281.46Z" transform="translate(0 0.14)"/>
      <path d="M340.8,283.52l0.78,0.35-0.78-.35h0Z" transform="translate(0 0.14)"/>
      <path d="M341.63,283.89h0s0,0,0-.06c0-.35,0-0.7-0.06-1.06,0,0,0-.1,0-0.14l-0.71-.32-0.05,1.21,0.78,0.35,0.05,0h0Z" transform="translate(0 0.14)"/>
      <path d="M341.63,283.89h0S341.63,283.9,341.63,283.89Z" transform="translate(0 0.14)"/>
      <path d="M341.56,282.63s0,0.1,0,.14c0,0.36,0,.71.06,1.06,0-.34,0-0.73,0-1.18l0,0h0Z" transform="translate(0 0.14)"/>
      <path d="M340.57,283.42h0l0.23,0.1h0Z" transform="translate(0 0.14)"/>
      <path d="M340.8,282.29l-0.06,0-0.17,1.16,0.23,0.1,0.05-1.21-0.05,0h0Z" transform="translate(0 0.14)"/>
      <path d="M351.77,294.46a3,3,0,0,1,0-.65A2.55,2.55,0,0,0,351.77,294.46Z" transform="translate(0 0.14)"/>
      <path d="M351.8,294.79v0Z" transform="translate(0 0.14)"/>
      <path d="M353.69,298.34a21.5,21.5,0,0,0,6.81,5.07h0A24.71,24.71,0,0,1,353.69,298.34Z" transform="translate(0 0.14)"/>
      <path d="M357.1,298c-1.11-1.26-2.24-2.09-2.38-3.17v-0.07c0-.09,0-0.18,0-0.26a2.55,2.55,0,0,1,0-.65c-1-.12-1.84-0.27-2.66-0.43-0.09.15-.17,0.3-0.26,0.43a3,3,0,0,0,0,.65c0,0.09,0,.17,0,0.26v0.07a7.74,7.74,0,0,0,1.89,3.55,24.71,24.71,0,0,0,6.81,5.06c0.15-.36.55-2,0.7-2.53C359.34,299.68,358.13,299.18,357.1,298Z" transform="translate(0 0.14)"/>
      <path d="M356.61,298.34a7.74,7.74,0,0,1-1.89-3.55A7.05,7.05,0,0,0,356.61,298.34Z" transform="translate(0 0.14)"/>
      <path d="M354.71,294.72c0-.09,0-0.18,0-0.26C354.69,294.54,354.7,294.63,354.71,294.72Z" transform="translate(0 0.14)"/>
      <path d="M354.72,293.56v-0.07c0-.09,0-0.18,0-0.26a2.55,2.55,0,0,1,0-.65c-0.75-.1-1.45-0.21-2.11-0.33-0.19.43-.38,0.81-0.56,1.13,0.82,0.16,1.7.3,2.66,0.43l0-.09C354.74,293.67,354.73,293.61,354.72,293.56Z" transform="translate(0 0.14)"/>
      <path d="M354.72,294.79v0Z" transform="translate(0 0.14)"/>
      <path d="M356.61,298.34A19.28,19.28,0,0,0,361,302V302A21.15,21.15,0,0,1,356.61,298.34Z" transform="translate(0 0.14)"/>
      <path d="M354.69,294.46a3,3,0,0,1,0-.65A2.55,2.55,0,0,0,354.69,294.46Z" transform="translate(0 0.14)"/>
      <path d="M354.75,293.73l0,0.09,0-.07v0Z" transform="translate(0 0.14)"/>
      <path d="M354.76,293.75l0,0.07,0-.06h0Z" transform="translate(0 0.14)"/>
      <path d="M337.65,283.42c-3.42-1.44-8.74-3.09-10.08-6.7,1.22,3.82,5.54,4.76,10.3,6.8h0l-0.23-.1h0Z" transform="translate(0 0.14)"/>
      <path d="M327.4,276.17v0Z" transform="translate(0 0.14)"/>
      <path d="M337.65,283.42l0.16-1.1c-3.49-1.37-6.36-2.6-7.32-5.6a4.94,4.94,0,0,1-.17-0.56v0a4.9,4.9,0,0,1-.12-0.63h-1.53c-0.48,0-1,0-1.36-.09,0,0.25.05,0.5,0.1,0.73v0c0,0.2.11,0.37,0.17,0.56C328.91,280.33,334.23,282,337.65,283.42Z" transform="translate(0 0.14)"/>
      <path d="M330.49,276.72c-0.06-.18-0.13-0.36-0.17-0.56A4.94,4.94,0,0,0,330.49,276.72Z" transform="translate(0 0.14)"/>
      <path d="M330.19,275.5a4.9,4.9,0,0,0,.12.63,7.9,7.9,0,0,1-.11-0.8C330.2,275.39,330.19,275.45,330.19,275.5Z" transform="translate(0 0.14)"/>
      <path d="M329.34,275.5h0Z" transform="translate(0 0.14)"/>
      <path d="M330.32,276.17v0Z" transform="translate(0 0.14)"/>
      <path d="M330.49,276.72c1,3,3.83,4.23,7.32,5.6v0C334.79,281.06,331.5,279.45,330.49,276.72Z" transform="translate(0 0.14)"/>
      <path d="M337.81,282.31l0.16-1.12h0a7.84,7.84,0,0,1-5.81-3.07,5.92,5.92,0,0,1-1.68-2.61,4.94,4.94,0,0,1-.17-0.56v0c0-.12-0.05-0.24-0.07-0.36,0,0.27,0,.54,0,0.79a7.9,7.9,0,0,0,.11.8v0c0,0.2.11,0.37,0.17,0.56C331.5,279.45,334.79,281.06,337.81,282.31Z" transform="translate(0 0.14)"/>
      <path d="M327.29,275.4c0.39,0.05.89,0.08,1.36,0.09-0.46,0-.92-0.05-1.37-0.1h0Z" transform="translate(0 0.14)"/>
      <path d="M330.19,275.5h0Z" transform="translate(0 0.14)"/>
      <path d="M330.15,274.27h-1.5c-0.46,0-.93,0-1.31-0.08,0,0.41,0,.79-0.06,1.16v0.06c0.45,0,.9.08,1.37,0.1h1.53c0-.05,0-0.11,0-0.17A9.43,9.43,0,0,1,330.15,274.27Z" transform="translate(0 0.14)"/>
      <path d="M330.15,274.27a9.43,9.43,0,0,0,0,1.07c0-.25,0-0.52,0-0.79,0-.09,0-0.18-0.05-0.27h0Z" transform="translate(0 0.14)"/>
      <path d="M327.27,275.5h0Z" transform="translate(0 0.14)"/>
      <path d="M324.19,275.38a12.82,12.82,0,0,0,1.55.12c-0.53,0-1-.07-1.55-0.12h0Z" transform="translate(0 0.14)"/>
      <path d="M327.11,275.38h0a20.09,20.09,0,0,1-2.94-.56c0,0.2,0,.39,0,0.56,0.51,0.06,1,.1,1.55.12h1.53s0-.07,0-0.1Z" transform="translate(0 0.14)"/>
      <path d="M352.67,178.95c-1,3-2.1,6.07-3.17,9.22a90,90,0,0,0,4.74-9C353.72,179.09,353.2,179,352.67,178.95Z" transform="translate(0 0.14)"/>
      <path d="M327.11,274.13h0a20.09,20.09,0,0,1-2.8-.53l-0.11.52c0,0.24,0,.47,0,0.68a20.09,20.09,0,0,0,2.94.56A9.25,9.25,0,0,1,327.11,274.13Z" transform="translate(0 0.14)"/>
      <path d="M327.11,275.37h0l0.17,0h0Z" transform="translate(0 0.14)"/>
      <path d="M327.28,275.33a9.5,9.5,0,0,1,0-1.17l-0.13,0h0a9.25,9.25,0,0,0,0,1.23l0.17,0v-0.06Z" transform="translate(0 0.14)"/>
      <path d="M324.19,274.13l0.11-.52-0.08,0Q324.2,273.87,324.19,274.13Z" transform="translate(0 0.14)"/>
      <path d="M327.28,275.33c0-.37,0-0.75.06-1.16h-0.11A9.5,9.5,0,0,0,327.28,275.33Z" transform="translate(0 0.14)"/>
      <path d="M337.88,283.52l0.78,0.35-0.78-.35h0Z" transform="translate(0 0.14)"/>
      <path d="M352,293.36l-0.16.45c0.07-.13.15-0.28,0.22-0.44H352Z" transform="translate(0 0.14)"/>
      <path d="M338.71,283.89h0s0,0,0-.06c0-.35,0-0.7-0.06-1.06,0,0,0-.08,0-0.12l-0.72-.28,0,1.15,0.78,0.35,0.05,0h0Z" transform="translate(0 0.14)"/>
      <path d="M352.35,292.21q-0.19.6-.39,1.16H352c0.15-.32.31-0.71,0.47-1.14Z" transform="translate(0 0.14)"/>
      <path d="M337.93,282.35v0l0.72,0.28h0Z" transform="translate(0 0.14)"/>
      <path d="M338,281.16v0l-0.05,1.17,0.72,0.29c0-.39,0-0.79,0-1.21Z" transform="translate(0 0.14)"/>
      <path d="M338.71,283.89h0S338.71,283.9,338.71,283.89Z" transform="translate(0 0.14)"/>
      <path d="M338.64,282.77c0,0.36,0,.71.06,1.06,0-.33,0-0.72,0-1.16l0,0S338.64,282.73,338.64,282.77Z" transform="translate(0 0.14)"/>
      <path d="M338.64,282.64h0l0,0h0Z" transform="translate(0 0.14)"/>
      <path d="M338.68,281.43c0,0.42,0,.82,0,1.21l0,0q0-.55.06-1.2Z" transform="translate(0 0.14)"/>
      <path d="M352,293.38c-0.08.16-.15,0.31-0.22,0.44,0.08-.13.17-0.28,0.26-0.43h0Z" transform="translate(0 0.14)"/>
      <path d="M352.5,292.23c-0.16.44-.32,0.82-0.47,1.14h0c0.18-.32.37-0.7,0.56-1.13Z" transform="translate(0 0.14)"/>
      <path d="M337.65,283.42h0l0.23,0.1h0Z" transform="translate(0 0.14)"/>
      <path d="M337.65,283.42l0.23,0.1,0-1.15-0.12,0Z" transform="translate(0 0.14)"/>
      <path d="M337.81,282.31v0l0.12,0v0Z" transform="translate(0 0.14)"/>
      <path d="M337.81,282.31l0.11,0,0.05-1.17Z" transform="translate(0 0.14)"/>
      <path d="M317.14,273.08a8.72,8.72,0,0,0,2.79,1.32,14.3,14.3,0,0,1-2.79-1.32h0Z" transform="translate(0 0.14)"/>
      <path d="M321.34,273.81a5.29,5.29,0,0,1-1.28-.73h0a5.44,5.44,0,0,1-2.46-2.67c-0.18.94-.33,1.83-0.45,2.67a14.3,14.3,0,0,0,2.79,1.32c0.36,0.12.75,0.25,1.2,0.38Z" transform="translate(0 0.14)"/>
      <path d="M320.06,271.85h0a6.1,6.1,0,0,1-2.3-2.27l-0.16.84a5.44,5.44,0,0,0,2.46,2.67c0.05-.35.11-0.72,0.17-1.1Z" transform="translate(0 0.14)"/>
      <path d="M320.06,273.07h0a5.29,5.29,0,0,0,1.28.73v0A12.75,12.75,0,0,1,320.06,273.07Z" transform="translate(0 0.14)"/>
      <path d="M321.59,272.68a8.16,8.16,0,0,1-1.36-.7c-0.06.37-.12,0.74-0.17,1.1a12.75,12.75,0,0,0,1.29.7Z" transform="translate(0 0.14)"/>
      <path d="M352.71,178.82l-0.74,0,0.69,0.11Z" transform="translate(0 0.14)"/>
      <path d="M348.11,169.5a8.93,8.93,0,0,0,.94-0.06l-1-.06Z" transform="translate(0 0.14)"/>
      <path d="M350.66,168.62a0.49,0.49,0,0,1,0-.26l-0.11-.11c-0.91,0-1.81-.06-2.71-0.13a0.5,0.5,0,0,0-.08.5l0.31,0.76,1,0.06a13.57,13.57,0,0,0,1.81-.33Z" transform="translate(0 0.14)"/>
      <path d="M350.64,168.36a0.49,0.49,0,0,0,0,.26l0.2,0.49,0.42-.11Z" transform="translate(0 0.14)"/>
      <path d="M354.46,178.63a17.25,17.25,0,0,1-1.74.19l0,0.13c0.53,0.08,1.05.14,1.57,0.17Z" transform="translate(0 0.14)"/>
      <path d="M350.53,168.25l0.11,0.11a0.5,0.5,0,0,1,0-.1h-0.14Z" transform="translate(0 0.14)"/>
      <path d="M351.32,169l-0.3-.72h-0.35a0.5,0.5,0,0,0,0,.1l0.65,0.64h0Z" transform="translate(0 0.14)"/>
      <polygon points="348.1 169.65 351.97 178.98 348.11 169.65 348.1 169.65"/>
      <path d="M352.81,178.55a2.19,2.19,0,0,1,1.7,0l0.12-.29L351,169.5c-0.66,0-1.31,0-2-.06a8.93,8.93,0,0,1-.94.06l3.86,9.34,0.74,0Z" transform="translate(0 0.14)"/>
      <path d="M350.87,169.11a13.57,13.57,0,0,1-1.81.33c0.65,0,1.31.06,2,.06h0Z" transform="translate(0 0.14)"/>
      <path d="M351.35,169.06l-0.06-.06-0.42.11L351,169.5l0.5,0Z" transform="translate(0 0.14)"/>
      <polygon points="351.03 169.65 351.02 169.65 354.63 178.36 354.63 178.36 351.03 169.65"/>
      <path d="M351.52,169.48l-0.5,0,3.6,8.71,0.26-.61Z" transform="translate(0 0.14)"/>
      <path d="M354.51,178.5a2.19,2.19,0,0,0-1.7,0l-0.09.27a17.25,17.25,0,0,0,1.74-.19Z" transform="translate(0 0.14)"/>
      <path d="M351.29,169l0.06,0.06,0-.07h0Z" transform="translate(0 0.14)"/>
      <path d="M349.5,188.17c-9.33,15.87-23.05,32.77-32,80.06a2,2,0,0,0,.06.9c8.62-45.4,21.66-62.69,30.93-78.08Z" transform="translate(0 0.14)"/>
      <path d="M341.63,282.66V282.6s0,0,0,.06h0Z" transform="translate(0 0.14)"/>
      <path d="M341.61,282.65h0Z" transform="translate(0 0.14)"/>
      <path d="M341.58,282.64l0,0h0Z" transform="translate(0 0.14)"/>
      <path d="M354.71,293.49c0-.09,0-0.18,0-0.26C354.69,293.31,354.7,293.4,354.71,293.49Z" transform="translate(0 0.14)"/>
      <path d="M354.72,293.56c0,0.06,0,.11,0,0.17h0C354.74,293.67,354.73,293.61,354.72,293.56Z" transform="translate(0 0.14)"/>
      <path d="M354.76,293.75a7.32,7.32,0,0,0,1.85,3.35,8,8,0,0,1-1.85-3.35h0Z" transform="translate(0 0.14)"/>
      <path d="M354.76,293.72h0v0h0v0Z" transform="translate(0 0.14)"/>
      <ellipse cx="354.76" cy="293.75" rx="0.01" transform="translate(22.17 612.52) rotate(-83.4)"/>
      <path d="M330.49,275.49c-0.06-.18-0.13-0.36-0.17-0.56A4.94,4.94,0,0,0,330.49,275.49Z" transform="translate(0 0.14)"/>
      <path d="M330.25,274.54c0,0.12,0,.24.07,0.36,0-.14,0-0.3-0.06-0.45v0.09Z" transform="translate(0 0.14)"/>
      <path d="M329.34,274.27h0Z" transform="translate(0 0.14)"/>
      <path d="M354.76,179.14l-0.53,0a90,90,0,0,1-4.74,9l-1,2.88A92.52,92.52,0,0,0,354.76,179.14Z" transform="translate(0 0.14)"/>
      <path d="M354.78,178.57l-0.33.06-0.22.49,0.53,0,0.13-.3Z" transform="translate(0 0.14)"/>
      <polygon points="354.78 178.72 354.78 178.72 354.89 178.98 354.78 178.72"/>
      <path d="M354.63,178.21l-0.12.29,0.26,0.05Z" transform="translate(0 0.14)"/>
      <polygon points="354.77 178.69 354.63 178.36 354.63 178.36 354.77 178.69 354.77 178.69"/>
      <path d="M354.78,178.57v0l-0.26-.05-0.06.13Z" transform="translate(0 0.14)"/>
      <polygon points="354.77 178.69 354.77 178.69 354.78 178.72 354.78 178.72 354.77 178.69"/>
      <path d="M354.83,178.56h-0.06v0h0.05Z" transform="translate(0 0.14)"/>
      <circle cx="348.46" cy="291.22" transform="translate(-101.64 351.69) rotate(-47.52)"/>
      <path d="M345.61,289.93V290a14,14,0,0,0,2.85,1.19h0A14.77,14.77,0,0,1,345.61,289.93Z" transform="translate(0 0.14)"/>
      <path d="M341.75,284q0,0.36.11,0.71c0-.25-0.06-0.48-0.09-0.7h0Z" transform="translate(0 0.14)"/>
      <path d="M341.77,282.73l-0.14-.07c0,0.44.07,0.87,0.13,1.29h0c0,0.22.07,0.45,0.09,0.7A7.12,7.12,0,0,0,345.6,290v-0.1C341.74,287.59,342.09,284.54,341.77,282.73Z" transform="translate(0 0.14)"/>
      <path d="M348.45,291.21h0s0,0,0-.06v0.06Z" transform="translate(0 0.14)"/>
      <path d="M354.72,293.56v0Z" transform="translate(0 0.14)"/>
      <path d="M354.69,293.22a3,3,0,0,1,0-.65A2.55,2.55,0,0,0,354.69,293.22Z" transform="translate(0 0.14)"/>
      <path d="M338,281.14a18.36,18.36,0,0,1-6.16-3.59c0.11,0.18.22,0.38,0.35,0.55a18.67,18.67,0,0,0,5.81,3.06v0Z" transform="translate(0 0.14)"/>
      <path d="M340.57,282.19l-1.82-.74h0c0.65,0.25,1.31.52,2,.81h0Z" transform="translate(0 0.14)"/>
      <path d="M340.74,282.27l0.06,0h0l-0.06,0h0Z" transform="translate(0 0.14)"/>
      <path d="M330.32,274.93v0Z" transform="translate(0 0.14)"/>
      <path d="M330.49,275.49a5.92,5.92,0,0,0,1.68,2.61c-0.13-.17-0.23-0.36-0.35-0.55A5.87,5.87,0,0,1,330.49,275.49Z" transform="translate(0 0.14)"/>
      <path d="M338,281.14v0l0.69,0.27h0Z" transform="translate(0 0.14)"/>
      <path d="M338.68,281.42h0l0.08,0h0Z" transform="translate(0 0.14)"/>
      <path d="M327.35,274.17c0.38,0,.85.07,1.31,0.08q-0.66,0-1.31-.09h0Z" transform="translate(0 0.14)"/>
      <path d="M329.34,274.27h0Z" transform="translate(0 0.14)"/>
      <path d="M330.15,274.27h0Z" transform="translate(0 0.14)"/>
      <polygon points="327.11 274.28 327.11 274.28 327.11 274.28 327.11 274.28"/>
      <path d="M327.11,274.13h0l0.13,0h0Z" transform="translate(0 0.14)"/>
      <path d="M327.23,274.15h0Z" transform="translate(0 0.14)"/>
      <path d="M340.85,282.31h0l0.71,0.32h0Z" transform="translate(0 0.14)"/>
      <path d="M341.56,282.63h0Z" transform="translate(0 0.14)"/>
      <path d="M340.8,282.28h0l0.05,0h0Z" transform="translate(0 0.14)"/>
      <path d="M341.61,282.65h0s0,0,0-.06V282.5S341.61,282.61,341.61,282.65Z" transform="translate(0 0.14)"/>
      <path d="M341.63,282.66h0S341.63,282.66,341.63,282.66Z" transform="translate(0 0.14)"/>
      <path d="M341.62,282.6s0-.09,0-0.13v0.13Z" transform="translate(0 0.14)"/>
      <path d="M340.74,282.26h0l-0.17-.07Z" transform="translate(0 0.14)"/>
      <path d="M340.74,282.26l0.06,0h0l-0.06,0h0Z" transform="translate(0 0.14)"/>
      <path d="M321.59,272.68c0.35,0.15.76,0.31,1.26,0.48-0.44-.16-0.85-0.33-1.25-0.51v0Z" transform="translate(0 0.14)"/>
      <path d="M320.06,271.84h0l0.18,0.13v0Z" transform="translate(0 0.14)"/>
      <path d="M320.24,272v0a8.16,8.16,0,0,0,1.36.7v0A13.38,13.38,0,0,1,320.24,272Z" transform="translate(0 0.14)"/>
      <path class="cls-4" d="M321.36,124.2h0v0Z" transform="translate(0 0.14)"/>
      <ellipse class="cls-4" cx="321.37" cy="124.21" ry="0.01" transform="translate(-17.73 185.35) rotate(-31.33)"/>
      <path class="cls-5" d="M321.37,124.22h0Z" transform="translate(0 0.14)"/>
      <polygon points="351.03 168.41 351.02 168.41 351.32 169.13 351.33 169.13 351.03 168.41"/>
      <polygon points="351.36 169.22 351.35 169.21 351.52 169.62 351.53 169.62 351.36 169.22"/>
      <polygon points="351.52 169.62 354.89 177.75 351.53 169.62 351.52 169.62"/>
      <polygon points="351.33 169.13 351.32 169.13 351.35 169.21 351.36 169.22 351.33 169.13"/>
    </g>
    <g>
      <g>
        <path class="cls-6" d="M264,0c0,65.75,33.56,168.49,86.3,168.49l3.87,9.34c-8.5,20.5-26.5,33-37.37,90.62-0.52,2.78,5.63,6.29,12.68,6,0.5,5,8.07,6.71,11.57,8.46,0.48,2.69-.54,8.1,13,9.85-0.75,4,7.17,10.78,20.67,14V0H264Z" transform="translate(0 0.14)"/>
        <path class="cls-4" d="M367,192.84c-6.62,20.4-19.87,90.74-19.27,98.62-6.4-2-6.68-5.6-6.9-9.68,0.12-19.76,18-80.77,20.25-102.69l3.58-2.83,4.25,9.33S367.46,191.39,367,192.84Z" transform="translate(0 0.14)"/>
        <path class="cls-4" d="M368.9,201.17c2.75,19.5-2.53,92.47-6.22,101.24-6.28-3.13-9.15-7.38-8.69-9.6,4.73-8.54,16-81.31,14.42-87.64Z" transform="translate(0 0.14)"/>
        <path class="cls-4" d="M341.13,222.21c-2.69,22.55-18,56.13-1,58l-0.1,2.35c-6.66-2.85-12.49-3.52-10.13-13,0.56-8.76,7.69-40,9.35-42.19Z" transform="translate(0 0.14)"/>
        <path class="cls-5" d="M329.45,274.5c0.45-13.41,11.82-55.34,28.51-97.13-0.43.69-2.18-.45-3,0.17-12.83,37-29.33,88.41-28.62,96.83A23.9,23.9,0,0,0,329.45,274.5Z" transform="translate(0 0.14)"/>
        <path class="cls-5" d="M340.89,282.89c-0.71-10.29,14.9-73.06,22.77-105.06,2.52,15-2,94.12-9.67,115,6.17-9.47,18.54-87.06,17.71-121.56-2.6-3.23-13.73,6.12-13.73,6.12,3.44,23.21-7.68,32.71-18.13,105Z" transform="translate(0 0.14)"/>
        <path class="cls-4" d="M323.31,273.78c-3.17-.92-4-1.7-4-1.7,2.21-15.3,14.84-49.87,14.84-49.87C328.77,249.21,323.31,273.78,323.31,273.78Z" transform="translate(0 0.14)"/>
        <path class="cls-4" d="M349.65,163.92c-39-11.33-67.5-72-80.5-135.75l20.5,7.5c1,9,20.25,68.75,35.89,90.5Z" transform="translate(0 0.14)"/>
        <path class="cls-4" d="M334.15,42.59l-7.81-3c0.16,26.27,22,64.31,33.06,101.25v-14l-5.47-19.75L347.4,87.34l-7.57-27Z" transform="translate(0 0.14)"/>
        <path class="cls-4" d="M299.15,28.17c3,38.17,24.39,63.92,24.39,63.92-10.39-22-19.14-45.09-19.89-63.92l9.25,1.92,9.25,32,18.67,40,10.58,22,11.07,29.34-1.07,8.66-14.5-6-23.36-32.87L299.15,69.59l-11.5-42.75Z" transform="translate(0 0.14)"/>
        <path class="cls-4" d="M374.65,50.09H362.47c0,42,12.18,87.5,12.18,87.5V50.09Z" transform="translate(0 0.14)"/>
        <path class="cls-5" d="M361.8,164.38c-2.4-12.55-24.9-43.3-24.9-43.3,6.25,12.25,15.67,27.25,18,35-8-5.25-57-64.5-64-130.5l-7-4c1.75,10.25.49,26.72,13.5,50.25,18.25,33,12.75,46,46.75,86C370.55,188.89,361.8,164.38,361.8,164.38Z" transform="translate(0 0.14)"/>
        <path class="cls-5" d="M359.45,157.54c-1.48-29.2-35.29-79.2-47.29-105.2,8.25,13.75,20.48,35.42,20.48,35.42-5.5-11.75-20.23-38-22-58.67,0.81,3.78-1.46-.19,3.67-0.92,7.33,38.42,39.79,91.16,43.64,107.42-1.56-21.5-18.66-40.75-26.56-93.75l8.43-1.3c4.07,43.55,16.24,68.26,20.57,78.8,5.75,14,7.52,41.39,7.52,41.39L360.4,167l-4.62-5.62Z" transform="translate(0 0.14)"/>
        <path d="M350.33,166.93c8.13-.65,24.32-12.43,24.32-12.43v15.33s-8.62,10.25-20.5,8l-4.23-10.22A0.5,0.5,0,0,1,350.33,166.93Z" transform="translate(0 0.14)"/>
        <path class="cls-7" d="M350.28,168.5c7.87,0,24.37-12.41,24.37-12.41v13.75s-12.25,8-20.5,8Z" transform="translate(0 0.14)"/>
      </g>
      <path class="cls-6" d="M357.7,177.38c5.87-4,17-8,17-7.59C366.59,175,359.34,177.19,357.7,177.38Z" transform="translate(0 0.14)"/>
    </g>
  </g>
  <g>
    <path d="M186.73,82.61C117,82.61,59.52,46.57,51.08,0H50.45C56,48.61,114.92,86.86,186.73,86.86S317.42,48.61,323,0h-0.63C313.95,46.57,256.44,82.61,186.73,82.61Z" transform="translate(0 0.14)"/>
    <path d="M374.47,82.89v3.5c-75.22,0-131.25-37.55-131.25-83.75h0.12C246.08,47.23,301.16,82.89,374.47,82.89Z" transform="translate(0 0.14)"/>
    <g>
      <path class="cls-5" d="M374.47,83.75C299.25,83.75,243.21,46.21,243.21,0H374.47V83.75Z" transform="translate(0 0.14)"/>
      <path class="cls-4" d="M374.47,78.68V63.1C352.31,63.1,266.81,41.15,266.81,0H243c0,55,80.48,74.7,127.7,78.68h3.77Z" transform="translate(0 0.14)"/>
      <path class="cls-4" d="M374.47,62.23V46.66c-22.16,0-77.33-13.93-83.54-46.66H260.51c0,55,63,58.25,110.19,62.23h3.77Z" transform="translate(0 0.14)"/>
      <path class="cls-5" d="M374.47,66.75V61.4c-10.85,0-60.43-5.72-83.54-24.11,5.09,8.08,50.58,29.45,82.64,29.45h0.91Z" transform="translate(0 0.14)"/>
      <path class="cls-6" d="M258.24,31.83c8.7,12.92,58.71,30.9,60,30.4-28.33-12.8-53.74-34-53.74-34Z" transform="translate(0 0.14)"/>
      <path class="cls-6" d="M276.26,16.29c9.82,20.13,58.16,34.8,59.4,34.3-36.17-14.22-57.16-38.27-57.16-38.27Z" transform="translate(0 0.14)"/>
      <path class="cls-4" d="M374.47,36.1V46.21c-12.59.17-65.61-9.42-89.64-46.21h9.66C311.05,16.07,341.16,36.49,373,36.26Z" transform="translate(0 0.14)"/>
      <path class="cls-5" d="M374.47,36.64V26.36c-15.08,0-52-8.8-71.35-26.36H290.92C300,9.44,323.1,36.64,373.14,36.64h1.33Z" transform="translate(0 0.14)"/>
      <path class="cls-4" d="M374.47,32.16V21.89c0-3.57,0-12.39,0-21.89H292.12c9.11,9.44,31,32.16,81,32.16h1.33Z" transform="translate(0 0.14)"/>
      <path class="cls-5" d="M374.47,50.28v-5c-35.49-2.21-51.52-12.8-71.35-24.54,5.09,6.88,38.38,29.53,70.44,29.53h0.91Z" transform="translate(0 0.14)"/>
      <path class="cls-5" d="M299.25,0h6.21c14.66,18.14,66.61,19.14,66.61,19.14C322.36,24.11,299.25,0,299.25,0Z" transform="translate(0 0.14)"/>
      <path class="cls-5" d="M374.47,8.65v3.94c-19.63,2.52-48.22-.46-59.4-9.91C334.7,12.59,374.47,8.65,374.47,8.65Z" transform="translate(0 0.14)"/>
      <path class="cls-6" d="M374.47,21.23V25c-7.7,0-9.2.5-19.39-3.73A86.21,86.21,0,0,0,374.47,21.23Z" transform="translate(0 0.14)"/>
    </g>
    <path d="M0,82.89v3.5c75.22,0,131.25-37.55,131.25-83.75h-0.12C128.39,47.23,73.31,82.89,0,82.89Z" transform="translate(0 0.14)"/>
    <g>
      <path class="cls-5" d="M0,83.75C75.22,83.75,131.25,46.21,131.25,0H0V83.75Z" transform="translate(0 0.14)"/>
      <path class="cls-4" d="M0,78.68V63.1C22.16,63.1,107.65,41.15,107.65,0h23.81c0,55-80.48,74.7-127.7,78.68H0Z" transform="translate(0 0.14)"/>
      <path class="cls-4" d="M0,62.23V46.66C22.16,46.66,77.33,32.72,83.54,0H114C114,55,51,58.25,3.77,62.23H0Z" transform="translate(0 0.14)"/>
      <path class="cls-5" d="M0,66.75V61.4c10.85,0,60.43-5.72,83.54-24.11C78.45,45.37,33,66.75.91,66.75H0Z" transform="translate(0 0.14)"/>
      <path class="cls-6" d="M116.23,31.83c-8.7,12.92-58.71,30.9-60,30.4,28.33-12.8,53.74-34,53.74-34Z" transform="translate(0 0.14)"/>
      <path class="cls-6" d="M98.21,16.29c-9.82,20.13-58.16,34.8-59.4,34.3C75,36.37,96,12.32,96,12.32Z" transform="translate(0 0.14)"/>
      <path class="cls-4" d="M0,36.1V46.21C12.59,46.37,65.61,36.78,89.64,0H80C63.41,16.07,33.3,36.49,1.49,36.26Z" transform="translate(0 0.14)"/>
      <path class="cls-5" d="M0,36.64V26.36c15.08,0,52-8.8,71.35-26.36H83.54C74.43,9.44,51.36,36.64,1.33,36.64H0Z" transform="translate(0 0.14)"/>
      <path class="cls-4" d="M0,32.16V21.89C0,18.32,0,9.5,0,0H82.35c-9.11,9.44-31,32.16-81,32.16H0Z" transform="translate(0 0.14)"/>
      <path class="cls-5" d="M0,50.28v-5c35.49-2.21,51.52-12.8,71.35-24.54C66.25,27.64,33,50.28.91,50.28H0Z" transform="translate(0 0.14)"/>
      <path class="cls-5" d="M75.22,0H69C54.34,18.14,2.4,19.14,2.4,19.14,52.1,24.11,75.22,0,75.22,0Z" transform="translate(0 0.14)"/>
      <path class="cls-5" d="M0,8.65v3.94c19.63,2.52,48.22-.46,59.4-9.91C39.77,12.59,0,8.65,0,8.65Z" transform="translate(0 0.14)"/>
      <path class="cls-6" d="M0,21.23V25c7.7,0,9.2.5,19.39-3.73A86.21,86.21,0,0,1,0,21.23Z" transform="translate(0 0.14)"/>
    </g>
    <g>
      <path class="cls-5" d="M186.73,83.13c70.64,0,128.55-36.67,134.05-83.28H52.68C58.18,46.46,116.1,83.13,186.73,83.13Z" transform="translate(0 0.14)"/>
      <path class="cls-4" d="M67.07,0h8.75c77.75,73.46,193,40.88,202.75,0h5c-3.17,21.5-40.37,43.25-59.5,47.25,12.38,1.38,53.25-3.12,85.5-47.25h8.63c-4.87,14.75-42.62,75.25-125.56,75.25S67.07,0,67.07,0Z" transform="translate(0 0.14)"/>
      <path class="cls-6" d="M52.68,0H67.07S115.19,63.9,189.69,64c48.38,0,68.38-18.19,68.38-18.19-9.92,9-12.83,11.65-24,16.24,27.25-2.87,82.25-62,82.25-62h5.47C296.82,118.51,66.57,105,52.68,0Z" transform="translate(0 0.14)"/>
      <path class="cls-6" d="M133.82,0h17.25c7.5,15.5,68.5,17.5,83.5,0h12.25c-12.25,23.65-74.25,41.15-112.38.75Z" transform="translate(0 0.14)"/>
      <path class="cls-5" d="M61.07,8.84c6,11.33,55.67,73,138.67,63.67-64.25,4.33-131.92-51.25-137.92-63Z" transform="translate(0 0.14)"/>
      <path class="cls-5" d="M103.25,27.71C116.08,37,164.74,68.3,199.74,48c-24,1.83-46.34.42-95.67-19.75Z" transform="translate(0 0.14)"/>
      <path class="cls-4" d="M201.07,31.91c-19,6-75,4.6-112.25-31.9h22.75C132.57,31.91,201.07,31.91,201.07,31.91Z" transform="translate(0 0.14)"/>
    </g>
  </g>
</svg>
